<svg height="512pt" viewBox="0 -38 512 512" width="512pt" xmlns="http://www.w3.org/2000/svg"><path d="m256.003906 212.34375c-8.960937 0-14.242187 4.960938-14.242187 16.003906v42.410156c0 11.042969 5.28125 16.003907 14.242187 16.003907 8.960938 0 14.402344-4.960938 14.402344-16.003907v-42.410156c0-11.042968-5.441406-16.003906-14.402344-16.003906zm0 0"/><path d="m386.972656 120.714844c-9.035156 0-17.96875.960937-26.703125 2.867187-9.695312-23.976562-25.863281-45.320312-46.523437-61.125-25.464844-19.480469-55.910156-29.777343-88.046875-29.777343-31.386719 0-61.253907 9.863281-86.382813 28.527343-22.332031 16.585938-39.148437 38.730469-49.003906 64.40625-24.222656 7.011719-46.042969 21.378907-62.132812 41.054688-18.171876 22.230469-28.179688 50.3125-28.179688 79.074219 0 68.9375 56.085938 125.023437 125.027344 125.023437h261.945312c68.941406 0 125.027344-56.085937 125.027344-125.023437 0-68.941407-56.085938-125.027344-125.027344-125.027344zm-300.804687 141.609375c-2.792969 2.789062-6.652344 4.402343-10.601563 4.402343-3.953125 0-7.824218-1.613281-10.613281-4.402343-2.792969-2.789063-4.390625-6.660157-4.390625-10.601563 0-3.953125 1.597656-7.820312 4.390625-10.613281 2.789063-2.789063 6.660156-4.390625 10.613281-4.390625 3.949219 0 7.808594 1.601562 10.601563 4.390625 2.800781 2.789063 4.398437 6.660156 4.398437 10.613281 0 3.941406-1.597656 7.8125-4.398437 10.601563zm83.476562-141.910157c2.789063-2.789062 6.660157-4.390624 10.601563-4.390624 3.949218 0 7.820312 1.601562 10.613281 4.390624 2.789063 2.800782 4.390625 6.664063 4.390625 10.613282 0 3.949218-1.601562 7.8125-4.390625 10.613281-2.792969 2.789063-6.664063 4.390625-10.613281 4.390625-3.941406 0-7.8125-1.601562-10.601563-4.390625-2.800781-2.800781-4.402343-6.664063-4.402343-10.613281.003906-3.949219 1.601562-7.8125 4.402343-10.613282zm-3.257812 166.347657c12.800781 0 13.601562-9.761719 14.082031-16.003907.480469-5.921874 5.921875-7.519531 12.324219-7.519531 8.640625 0 12.640625 2.238281 12.640625 11.839844 0 21.289063-17.28125 33.449219-40.167969 33.449219-20.964844 0-38.410156-10.242188-38.410156-37.769532v-42.410156c0-27.523437 17.445312-37.765625 38.410156-37.765625 22.882813 0 40.167969 11.523438 40.167969 31.847657 0 9.601562-4 11.839843-12.480469 11.839843-6.722656 0-12.164063-1.757812-12.484375-7.519531-.160156-4.160156-.640625-14.402344-14.242188-14.402344-9.121093 0-14.402343 5.121094-14.402343 16v42.410156c-.003907 10.882813 5.28125 16.003907 14.5625 16.003907zm128.984375-16.003907c0 27.527344-17.28125 37.769532-39.367188 37.769532-22.085937 0-39.210937-10.242188-39.210937-37.769532v-42.410156c0-27.527344 17.125-37.769531 39.210937-37.769531 22.085938 0 39.367188 10.242187 39.367188 37.769531zm78.894531 15.042969c4.003906 0 7.523437 4.960938 7.523437 10.722657 0 5.761718-3.519531 11.042968-7.523437 11.042968h-56.972656c-4.480469 0-10.878907-3.039062-10.878907-7.679687v-15.527344c0-25.125 50.410157-39.527344 50.410157-59.851563 0-5.121093-3.199219-11.363281-12.164063-11.363281-6.398437 0-12 3.203125-12 12.003907 0 4.640624-4.964844 9.121093-13.125 9.121093-6.402344 0-11.203125-2.878906-11.203125-12.964843 0-19.523438 17.925781-30.726563 36.167969-30.726563 18.566406 0 37.289062 11.683594 37.289062 33.128906 0 34.726563-49.449218 46.089844-49.449218 60.652344v1.441406zm73.316406-24.136719c-2.800781 2.789063-6.660156 4.390626-10.613281 4.390626-3.949219 0-7.820312-1.601563-10.613281-4.390626-2.789063-2.789062-4.390625-6.660156-4.390625-10.613281 0-3.949219 1.601562-7.820312 4.390625-10.609375 2.792969-2.792968 6.664062-4.390625 10.613281-4.390625 3.953125 0 7.8125 1.597657 10.613281 4.390625 2.789063 2.800782 4.390625 6.660156 4.390625 10.609375 0 3.953125-1.601562 7.8125-4.390625 10.613281zm0 0"/><path d="m44.886719 63.011719c-3.949219 0-7.808594-1.597657-10.609375-4.390625-2.792969-2.800782-4.390625-6.660156-4.390625-10.609375 0-3.953125 1.597656-7.8125 4.390625-10.613281 2.800781-2.792969 6.660156-4.390626 10.609375-4.390626 3.953125 0 7.824219 1.597657 10.613281 4.390626 2.792969 2.789062 4.390625 6.660156 4.390625 10.613281 0 3.949219-1.597656 7.820312-4.390625 10.609375-2.789062 2.792968-6.660156 4.390625-10.613281 4.390625zm0 0"/><path d="m279.9375 435.089844c-3.953125 0-7.820312-1.601563-10.613281-4.390625-2.789063-2.789063-4.390625-6.660157-4.390625-10.613281 0-3.949219 1.601562-7.820313 4.390625-10.609376 2.800781-2.792968 6.660156-4.394531 10.613281-4.394531 3.949219 0 7.8125 1.601563 10.613281 4.394531 2.789063 2.796876 4.390625 6.660157 4.390625 10.609376 0 3.953124-1.601562 7.8125-4.390625 10.613281-2.792969 2.789062-6.664062 4.390625-10.613281 4.390625zm0 0"/><path d="m369.957031 30.007812c-3.953125 0-7.8125-1.601562-10.613281-4.390624-2.789062-2.800782-4.390625-6.664063-4.390625-10.613282 0-3.953125 1.601563-7.824218 4.390625-10.613281 2.800781-2.789063 6.660156-4.390625 10.613281-4.390625 3.949219 0 7.820313 1.601562 10.609375 4.390625 2.792969 2.789063 4.390625 6.660156 4.390625 10.613281 0 3.949219-1.597656 7.8125-4.390625 10.613282-2.789062 2.789062-6.660156 4.390624-10.609375 4.390624zm0 0"/></svg>