<?xml version="1.0" encoding="iso-8859-1"?>
<!-- Generator: Adobe Illustrator 16.0.0, SVG Export Plug-In . SVG Version: 6.00 Build 0)  -->
<!DOCTYPE svg PUBLIC "-//W3C//DTD SVG 1.1//EN" "http://www.w3.org/Graphics/SVG/1.1/DTD/svg11.dtd">
<svg version="1.1" id="Capa_1" xmlns="http://www.w3.org/2000/svg" xmlns:xlink="http://www.w3.org/1999/xlink" x="0px" y="0px"
	 width="489.02px" height="489.02px" viewBox="0 0 489.02 489.02" style="enable-background:new 0 0 489.02 489.02;"
	 xml:space="preserve">
<g>
	<path d="M4.15,201.721l117.92,105.866L88.896,462.546c-1.035,4.834,0.876,9.824,4.876,12.729c3.999,2.906,9.335,3.182,13.613,0.703
		l137.124-79.434l137.125,79.434c1.944,1.127,4.107,1.686,6.265,1.686c2.588,0,5.167-0.803,7.349-2.389
		c4-2.904,5.911-7.895,4.876-12.729l-33.172-154.959L484.87,201.721c3.679-3.302,5.064-8.462,3.538-13.164
		c-1.528-4.702-5.684-8.061-10.601-8.571l-157.626-16.334L255.936,18.788c-2.004-4.519-6.483-7.432-11.427-7.432
		s-9.423,2.914-11.427,7.433l-64.242,144.863L11.212,179.986c-4.917,0.51-9.072,3.869-10.6,8.571
		C-0.916,193.259,0.471,198.419,4.15,201.721z M178.619,187.772c4.455-0.462,8.322-3.272,10.138-7.366l55.752-125.717
		l55.754,125.717c1.816,4.094,5.683,6.904,10.138,7.366l136.793,14.176L344.86,293.821c-3.333,2.992-4.81,7.538-3.873,11.918
		l28.788,134.479l-119.001-68.936c-1.938-1.123-4.102-1.684-6.266-1.684c-2.164,0-4.328,0.561-6.266,1.684l-119,68.936
		l28.789-134.479c0.938-4.379-0.54-8.926-3.873-11.918L41.824,201.948L178.619,187.772z"/>
</g>
<g>
</g>
<g>
</g>
<g>
</g>
<g>
</g>
<g>
</g>
<g>
</g>
<g>
</g>
<g>
</g>
<g>
</g>
<g>
</g>
<g>
</g>
<g>
</g>
<g>
</g>
<g>
</g>
<g>
</g>
</svg>
