<?xml version="1.0" encoding="utf-8"?>
<!-- Generator: Adobe Illustrator 19.2.1, SVG Export Plug-In . SVG Version: 6.00 Build 0)  -->
<svg version="1.0" id="Calque_1" xmlns="http://www.w3.org/2000/svg" xmlns:xlink="http://www.w3.org/1999/xlink" x="0px" y="0px"
	 viewBox="0 0 30 30" style="enable-background:new 0 0 30 30;" xml:space="preserve">
<style type="text/css">
	.st0{display:none;}
	.st1{display:inline;fill:#222221;}
	.st2{display:inline;}
	.st3{fill:#222221;}
</style>
<g id="train">
	<g>
		<polygon class="st3" points="20.3,24.6 18,24.6 21.4,28 23.7,28 		"/>
		<polygon class="st3" points="6.2,28 8.4,28 11.8,24.6 9.6,24.6 		"/>
		<path class="st3" d="M23.6,13.1l0.1-5.3c0-1-0.3-2.1-0.9-2.9c-0.7-0.9-1.8-1.8-3.4-2h-8.8C8.9,3.1,7.8,4,7.1,4.9
			C6.5,5.7,6.2,6.7,6.2,7.8l0.1,5.3c-0.1,9,2.9,10.4,5.2,10.4h3.4l0,0h3.4C20.6,23.5,23.7,22.1,23.6,13.1z M11.7,20.6
			c-1.1,0-3.3-2-3.3-3.9c0-1.2,2.2-1.2,3.1-0.1c0.9,1,1.6,2.8,1.6,2.8C13.6,21.1,11.7,20.6,11.7,20.6z M14.9,10.3
			c-4.8,0-6.5-2.6-6.5-3.7c0-0.5,0.2-1,0.5-1.4c0.3-0.5,0.9-0.9,1.6-0.9h8.8c0.6,0,1.2,0.3,1.6,0.9c0.2,0.4,0.5,0.9,0.5,1.4
			C21.4,7.7,19.7,10.2,14.9,10.3z M16.7,19.4c0,0,0.7-1.8,1.6-2.8s3.1-1.1,3.1,0.1c0,1.9-2.2,3.9-3.3,3.9
			C18.1,20.6,16.2,21.1,16.7,19.4z"/>
	</g>
</g>
</svg>
